<svg width="382" height="432" viewBox="0 0 382 432" fill="none" xmlns="http://www.w3.org/2000/svg">
<path d="M315.962 180.901C315.962 258.076 253.401 320.639 176.225 320.639C99.0503 320.639 36.4873 258.076 36.4873 180.901C36.4873 103.727 99.0503 41.1639 176.225 41.1639C253.401 41.1639 315.962 103.727 315.962 180.901Z" fill="#F4F3F6"/>
<path d="M179.702 244.729V328.609C179.702 343.133 167.929 354.906 153.407 354.906H26.4239C15.6279 354.906 6.87599 363.657 6.87599 374.453V428.559C6.87599 430.422 5.3658 431.934 3.50305 431.934C1.64009 431.934 0.129883 430.422 0.129883 428.559V374.453C0.129883 359.931 11.9022 348.16 26.4239 348.16H153.409C164.203 348.16 172.954 339.409 172.954 328.613V244.729H179.702Z" fill="#0064CD"/>
<path d="M187.292 262.833V276.277C187.292 279.486 184.69 282.088 181.482 282.088H171.176C169.406 282.088 167.82 281.295 166.754 280.047V280.045C165.889 279.03 165.367 277.716 165.367 276.277V262.833H187.292Z" fill="#0064CD"/>
<path d="M198.746 231.499V258.351C198.746 262.495 195.384 265.857 191.235 265.857H161.421C157.274 265.857 153.912 262.495 153.912 258.351V231.499H198.746Z" fill="#0D7DF2"/>
<path d="M151.243 225.586H201.414C201.959 225.586 202.4 226.029 202.4 226.574V230.513C202.4 231.058 201.959 231.499 201.414 231.499H151.243C150.699 231.499 150.256 231.058 150.256 230.513V226.574C150.256 226.029 150.699 225.586 151.243 225.586Z" fill="#0670E0"/>
<path d="M169.599 225.585H161.958V207.312C161.958 205.202 163.67 203.492 165.78 203.492C167.889 203.492 169.599 205.202 169.599 207.312V225.585Z" fill="#003264"/>
<path d="M190.697 225.585H183.056V207.312C183.056 205.202 184.766 203.492 186.877 203.492C188.987 203.492 190.697 205.202 190.697 207.312V225.585Z" fill="#003264"/>
<path d="M198.746 231.499V258.351C198.746 262.495 195.384 265.857 191.235 265.857H161.421C157.274 265.857 153.912 262.495 153.912 258.351C186.106 256.113 189.064 231.499 189.064 231.499H198.746Z" fill="#0670E0"/>
<path d="M198.746 233.664H153.912V231.498H198.746V233.664Z" fill="#0064CD"/>
<path d="M198.746 242.847V258.351C198.746 262.495 195.384 265.857 191.235 265.857H170.306C191.44 265.857 198.746 242.847 198.746 242.847Z" fill="#0064CD"/>
<path d="M187.292 267.261H165.367V265.858H187.292V267.261Z" fill="#0057B2"/>
<path d="M169.599 225.585H161.958V222.911H169.599V225.585Z" fill="#022140"/>
<path d="M190.697 225.585H183.056V222.911H190.697V225.585Z" fill="#022140"/>
<path d="M187.292 265.858V276.277C187.292 279.486 184.69 282.088 181.481 282.088H171.176C169.406 282.088 167.82 281.295 166.754 280.047V280.045C182.816 282.015 185.27 265.858 185.27 265.858H187.292Z" fill="#0057B2"/>
<path d="M381.353 3.37424C381.353 5.23534 379.842 6.74658 377.981 6.74658H199.252C188.455 6.74658 179.703 15.4993 179.703 26.2953V114.938H172.956V26.2953C172.956 11.773 184.727 -0.000152588 199.252 -0.000152588H377.981C379.842 -0.000152588 381.353 1.51108 381.353 3.37424Z" fill="#0064CD"/>
<path d="M187.292 107.348V93.9059C187.292 90.6951 184.69 88.0949 181.482 88.0949H171.176C169.406 88.0949 167.82 88.8878 166.754 90.1361V90.1382C165.889 91.1505 165.367 92.4672 165.367 93.9059V107.348H187.292Z" fill="#0064CD"/>
<path d="M198.746 138.684V111.831C198.746 107.685 195.384 104.323 191.235 104.323H161.421C157.274 104.323 153.912 107.685 153.912 111.831V138.684H198.746Z" fill="#0D7DF2"/>
<path d="M151.243 144.594H201.414C201.959 144.594 202.4 144.153 202.4 143.608V139.669C202.4 139.124 201.959 138.683 201.414 138.683H151.243C150.699 138.683 150.256 139.124 150.256 139.669V143.608C150.256 144.153 150.699 144.594 151.243 144.594Z" fill="#0670E0"/>
<path d="M198.746 138.684V111.831C198.746 107.685 195.384 104.323 191.235 104.323H161.421C157.274 104.323 153.912 107.685 153.912 111.831C186.106 114.069 189.064 138.684 189.064 138.684H198.746Z" fill="#0670E0"/>
<path d="M198.746 136.518H153.912V138.684H198.746V136.518Z" fill="#0064CD"/>
<path d="M198.746 127.335V111.832C198.746 107.685 195.384 104.323 191.235 104.323H170.306C191.44 104.323 198.746 127.335 198.746 127.335Z" fill="#0064CD"/>
<path d="M187.292 102.921H165.367V104.323H187.292V102.921Z" fill="#0057B2"/>
<path d="M187.292 104.323V93.9056C187.292 90.6947 184.69 88.0946 181.481 88.0946H171.176C169.406 88.0946 167.82 88.8875 166.754 90.1358V90.1378C182.816 88.167 185.27 104.323 185.27 104.323H187.292Z" fill="#0057B2"/>
<path d="M117.523 168.042H103.64C102.587 168.042 101.729 167.187 101.729 166.131C101.729 165.075 102.587 164.22 103.64 164.22H117.523C118.579 164.22 119.434 165.075 119.434 166.131C119.434 167.187 118.579 168.042 117.523 168.042Z" fill="#F1D02D"/>
<path d="M135.142 150.422C134.086 150.422 133.231 149.567 133.231 148.511V134.628C133.231 133.573 134.086 132.718 135.142 132.718C136.198 132.718 137.053 133.573 137.053 134.628V148.511C137.053 149.567 136.198 150.422 135.142 150.422Z" fill="#F1D02D"/>
<path d="M122.404 155.304C121.915 155.304 121.424 155.115 121.052 154.743L111.517 145.207C110.769 144.46 110.769 143.251 111.517 142.504C112.262 141.758 113.473 141.758 114.218 142.504L123.753 152.041C124.501 152.786 124.501 153.997 123.753 154.743C123.381 155.115 122.892 155.304 122.404 155.304Z" fill="#F1D02D"/>
<path d="M235.133 211.035H249.016C250.072 211.035 250.927 211.89 250.927 212.946C250.927 213.999 250.072 214.856 249.016 214.856H235.133C234.078 214.856 233.223 213.999 233.223 212.946C233.223 211.89 234.078 211.035 235.133 211.035Z" fill="#F1D02D"/>
<path d="M217.514 228.652C218.57 228.652 219.425 229.509 219.425 230.565V244.446C219.425 245.501 218.57 246.356 217.514 246.356C216.459 246.356 215.604 245.501 215.604 244.446V230.565C215.604 229.509 216.459 228.652 217.514 228.652Z" fill="#F1D02D"/>
<path d="M230.254 223.773C230.743 223.773 231.231 223.959 231.604 224.332L241.141 233.869C241.886 234.615 241.886 235.826 241.141 236.571C240.394 237.318 239.185 237.318 238.438 236.571L228.902 227.036C228.155 226.288 228.155 225.079 228.902 224.332C229.275 223.959 229.764 223.773 230.254 223.773Z" fill="#F1D02D"/>
<path d="M157.272 186.174H152.286L151.028 192.548H144.176L145.477 186.174H129.129L130.039 181.447L147.906 162.193H155.581L138.929 180.45H146.908L148.036 174.769H154.584L153.456 180.45H158.443L157.272 186.174ZM171.689 193.069C168.307 193.069 165.633 192.057 163.667 190.033C161.701 187.981 160.718 185.162 160.718 181.577C160.718 177.934 161.383 174.595 162.713 171.56C164.072 168.524 165.951 166.125 168.35 164.361C170.75 162.569 173.482 161.673 176.546 161.673C179.929 161.673 182.603 162.699 184.569 164.752C186.534 166.775 187.517 169.579 187.517 173.164C187.517 176.807 186.838 180.146 185.479 183.182C184.149 186.217 182.285 188.631 179.885 190.423C177.486 192.187 174.754 193.069 171.689 193.069ZM172.34 187.128C174.017 187.128 175.462 186.405 176.676 184.96C177.919 183.514 178.859 181.722 179.495 179.582C180.131 177.414 180.449 175.333 180.449 173.338C180.449 171.401 180.044 169.97 179.235 169.045C178.454 168.091 177.341 167.614 175.896 167.614C174.219 167.614 172.759 168.336 171.516 169.782C170.302 171.227 169.376 173.034 168.74 175.202C168.104 177.342 167.786 179.409 167.786 181.404C167.786 183.341 168.177 184.786 168.957 185.74C169.767 186.665 170.894 187.128 172.34 187.128ZM216.56 186.174H211.573L210.316 192.548H203.464L204.765 186.174H188.417L189.327 181.447L207.194 162.193H214.869L198.217 180.45H206.196L207.324 174.769H213.872L212.744 180.45H217.731L216.56 186.174Z" fill="#003264"/>
</svg>
