<svg width="93" height="159" viewBox="0 0 93 159" fill="none" xmlns="http://www.w3.org/2000/svg">
<path fill-rule="evenodd" clip-rule="evenodd" d="M90.3245 158.913C88.8635 158.913 87.6791 158.014 87.6791 156.905C87.6791 155.796 88.8635 154.897 90.3245 154.897C91.7856 154.897 92.97 155.796 92.97 156.905C92.97 158.014 91.7856 158.913 90.3245 158.913ZM90.3245 144.857C88.8635 144.857 87.6791 143.958 87.6791 142.849C87.6791 141.74 88.8635 140.841 90.3245 140.841C91.7856 140.841 92.97 141.74 92.97 142.849C92.97 143.958 91.7856 144.857 90.3245 144.857ZM90.3245 130.801C88.8635 130.801 87.6791 129.902 87.6791 128.793C87.6791 127.684 88.8635 126.785 90.3245 126.785C91.7856 126.785 92.97 127.684 92.97 128.793C92.97 129.902 91.7856 130.801 90.3245 130.801ZM90.3245 116.744C88.8635 116.744 87.6791 115.845 87.6791 114.736C87.6791 113.627 88.8635 112.728 90.3245 112.728C91.7856 112.728 92.97 113.627 92.97 114.736C92.97 115.845 91.7856 116.744 90.3245 116.744ZM90.3245 102.688C88.8635 102.688 87.6791 101.789 87.6791 100.68C87.6791 99.5712 88.8635 98.6722 90.3245 98.6722C91.7856 98.6722 92.97 99.5712 92.97 100.68C92.97 101.789 91.7856 102.688 90.3245 102.688ZM90.3244 88.632C88.8634 88.632 87.679 87.733 87.679 86.624C87.679 85.515 88.8634 84.616 90.3244 84.616C91.7855 84.616 92.9699 85.515 92.9699 86.624C92.9699 87.733 91.7855 88.632 90.3244 88.632ZM72.9399 158.913C71.4789 158.913 70.2944 158.014 70.2944 156.905C70.2944 155.796 71.4789 154.897 72.9399 154.897C74.401 154.897 75.5854 155.796 75.5854 156.905C75.5854 158.014 74.401 158.913 72.9399 158.913ZM72.9399 144.857C71.4789 144.857 70.2944 143.958 70.2944 142.849C70.2944 141.74 71.4789 140.841 72.9399 140.841C74.401 140.841 75.5854 141.74 75.5854 142.849C75.5854 143.958 74.401 144.857 72.9399 144.857ZM72.9399 130.801C71.4789 130.801 70.2944 129.902 70.2944 128.793C70.2944 127.684 71.4789 126.785 72.9399 126.785C74.401 126.785 75.5854 127.684 75.5854 128.793C75.5854 129.902 74.401 130.801 72.9399 130.801ZM72.9399 116.744C71.4789 116.744 70.2944 115.845 70.2944 114.736C70.2944 113.627 71.4789 112.728 72.9399 112.728C74.401 112.728 75.5854 113.627 75.5854 114.736C75.5854 115.845 74.401 116.744 72.9399 116.744ZM72.9399 102.688C71.4789 102.688 70.2944 101.789 70.2944 100.68C70.2944 99.5712 71.4789 98.6722 72.9399 98.6722C74.401 98.6722 75.5854 99.5712 75.5854 100.68C75.5854 101.789 74.401 102.688 72.9399 102.688ZM72.9399 88.632C71.4789 88.632 70.2944 87.733 70.2944 86.624C70.2944 85.515 71.4789 84.616 72.9399 84.616C74.401 84.616 75.5854 85.515 75.5854 86.624C75.5854 87.733 74.401 88.632 72.9399 88.632ZM55.5553 158.913C54.0942 158.913 52.9098 158.014 52.9098 156.905C52.9098 155.796 54.0942 154.897 55.5553 154.897C57.0164 154.897 58.2008 155.796 58.2008 156.905C58.2008 158.014 57.0164 158.913 55.5553 158.913ZM55.5553 144.857C54.0942 144.857 52.9098 143.958 52.9098 142.849C52.9098 141.74 54.0942 140.841 55.5553 140.841C57.0164 140.841 58.2008 141.74 58.2008 142.849C58.2008 143.958 57.0164 144.857 55.5553 144.857ZM55.5553 130.801C54.0942 130.801 52.9098 129.902 52.9098 128.793C52.9098 127.684 54.0942 126.785 55.5553 126.785C57.0164 126.785 58.2008 127.684 58.2008 128.793C58.2008 129.902 57.0164 130.801 55.5553 130.801ZM55.5553 116.744C54.0942 116.744 52.9098 115.845 52.9098 114.736C52.9098 113.627 54.0942 112.728 55.5553 112.728C57.0164 112.728 58.2008 113.627 58.2008 114.736C58.2008 115.845 57.0164 116.744 55.5553 116.744ZM55.5553 102.688C54.0942 102.688 52.9098 101.789 52.9098 100.68C52.9098 99.5712 54.0942 98.6722 55.5553 98.6722C57.0164 98.6722 58.2008 99.5712 58.2008 100.68C58.2008 101.789 57.0164 102.688 55.5553 102.688ZM55.5553 88.632C54.0942 88.632 52.9098 87.733 52.9098 86.624C52.9098 85.515 54.0942 84.616 55.5553 84.616C57.0163 84.616 58.2008 85.515 58.2008 86.624C58.2008 87.733 57.0163 88.632 55.5553 88.632ZM37.4147 158.913C35.9537 158.913 34.7693 158.014 34.7693 156.905C34.7693 155.796 35.9537 154.897 37.4147 154.897C38.8758 154.897 40.0602 155.796 40.0602 156.905C40.0602 158.014 38.8758 158.913 37.4147 158.913ZM37.4147 144.857C35.9537 144.857 34.7693 143.958 34.7693 142.849C34.7693 141.74 35.9537 140.841 37.4147 140.841C38.8758 140.841 40.0602 141.74 40.0602 142.849C40.0602 143.958 38.8758 144.857 37.4147 144.857ZM37.4147 130.801C35.9537 130.801 34.7693 129.902 34.7693 128.793C34.7693 127.684 35.9537 126.785 37.4147 126.785C38.8758 126.785 40.0602 127.684 40.0602 128.793C40.0602 129.902 38.8758 130.801 37.4147 130.801ZM37.4147 116.744C35.9537 116.744 34.7693 115.845 34.7693 114.736C34.7693 113.627 35.9537 112.728 37.4147 112.728C38.8758 112.728 40.0602 113.627 40.0602 114.736C40.0602 115.845 38.8758 116.744 37.4147 116.744ZM37.4147 102.688C35.9537 102.688 34.7693 101.789 34.7693 100.68C34.7693 99.5712 35.9537 98.6722 37.4147 98.6722C38.8758 98.6722 40.0602 99.5712 40.0602 100.68C40.0602 101.789 38.8758 102.688 37.4147 102.688ZM37.4147 88.632C35.9536 88.632 34.7692 87.733 34.7692 86.624C34.7692 85.515 35.9536 84.616 37.4147 84.616C38.8757 84.616 40.0601 85.515 40.0601 86.624C40.0601 87.733 38.8757 88.632 37.4147 88.632ZM20.0301 158.913C18.569 158.913 17.3846 158.014 17.3846 156.905C17.3846 155.796 18.569 154.897 20.0301 154.897C21.4911 154.897 22.6755 155.796 22.6755 156.905C22.6755 158.014 21.4911 158.913 20.0301 158.913ZM20.0301 144.857C18.569 144.857 17.3846 143.958 17.3846 142.849C17.3846 141.74 18.569 140.841 20.0301 140.841C21.4911 140.841 22.6755 141.74 22.6755 142.849C22.6755 143.958 21.4911 144.857 20.0301 144.857ZM20.0301 130.801C18.569 130.801 17.3846 129.902 17.3846 128.793C17.3846 127.684 18.569 126.785 20.0301 126.785C21.4911 126.785 22.6755 127.684 22.6755 128.793C22.6755 129.902 21.4911 130.801 20.0301 130.801ZM20.0301 116.744C18.569 116.744 17.3846 115.845 17.3846 114.736C17.3846 113.627 18.569 112.728 20.0301 112.728C21.4911 112.728 22.6755 113.627 22.6755 114.736C22.6755 115.845 21.4911 116.744 20.0301 116.744ZM20.0301 102.688C18.569 102.688 17.3846 101.789 17.3846 100.68C17.3846 99.5712 18.569 98.6722 20.0301 98.6722C21.4911 98.6722 22.6755 99.5712 22.6755 100.68C22.6755 101.789 21.4911 102.688 20.0301 102.688ZM20.03 88.632C18.569 88.632 17.3846 87.733 17.3846 86.624C17.3846 85.515 18.569 84.616 20.03 84.616C21.491 84.616 22.6754 85.515 22.6754 86.624C22.6754 87.733 21.491 88.632 20.03 88.632ZM2.64551 158.913C1.18443 158.913 0 158.014 0 156.905C0 155.796 1.18443 154.897 2.64551 154.897C4.10658 154.897 5.29102 155.796 5.29102 156.905C5.29102 158.014 4.10658 158.913 2.64551 158.913ZM2.64551 144.857C1.18443 144.857 0 143.958 0 142.849C0 141.74 1.18443 140.841 2.64551 140.841C4.10658 140.841 5.29102 141.74 5.29102 142.849C5.29102 143.958 4.10658 144.857 2.64551 144.857ZM2.64551 130.801C1.18443 130.801 0 129.902 0 128.793C0 127.684 1.18443 126.785 2.64551 126.785C4.10658 126.785 5.29102 127.684 5.29102 128.793C5.29102 129.902 4.10658 130.801 2.64551 130.801ZM2.64551 116.744C1.18443 116.744 0 115.845 0 114.736C0 113.627 1.18443 112.728 2.64551 112.728C4.10658 112.728 5.29102 113.627 5.29102 114.736C5.29102 115.845 4.10658 116.744 2.64551 116.744ZM2.64551 102.688C1.18443 102.688 0 101.789 0 100.68C0 99.5712 1.18443 98.6722 2.64551 98.6722C4.10658 98.6722 5.29102 99.5712 5.29102 100.68C5.29102 101.789 4.10658 102.688 2.64551 102.688ZM2.64551 88.632C1.18443 88.632 0 87.733 0 86.624C0 85.515 1.18443 84.616 2.64551 84.616C4.10658 84.616 5.29102 85.515 5.29102 86.624C5.29102 87.733 4.10658 88.632 2.64551 88.632ZM90.3245 74.2969C88.8635 74.2969 87.6791 73.3979 87.6791 72.2889C87.6791 71.1799 88.8635 70.2808 90.3245 70.2808C91.7856 70.2808 92.97 71.1799 92.97 72.2889C92.97 73.3979 91.7856 74.2969 90.3245 74.2969ZM90.3245 60.2408C88.8635 60.2408 87.6791 59.3418 87.6791 58.2328C87.6791 57.1238 88.8635 56.2248 90.3245 56.2248C91.7856 56.2248 92.97 57.1238 92.97 58.2328C92.97 59.3418 91.7856 60.2408 90.3245 60.2408ZM90.3245 46.1846C88.8635 46.1846 87.6791 45.2856 87.6791 44.1766C87.6791 43.0676 88.8635 42.1685 90.3245 42.1685C91.7856 42.1685 92.97 43.0676 92.97 44.1766C92.97 45.2856 91.7856 46.1846 90.3245 46.1846ZM90.3245 32.1285C88.8635 32.1285 87.6791 31.2295 87.6791 30.1205C87.6791 29.0115 88.8635 28.1124 90.3245 28.1124C91.7856 28.1124 92.97 29.0115 92.97 30.1205C92.97 31.2295 91.7856 32.1285 90.3245 32.1285ZM90.3245 18.0721C88.8635 18.0721 87.6791 17.1731 87.6791 16.0641C87.6791 14.9551 88.8635 14.0561 90.3245 14.0561C91.7856 14.0561 92.97 14.9551 92.97 16.0641C92.97 17.1731 91.7856 18.0721 90.3245 18.0721ZM90.3245 4.01605C88.8635 4.01605 87.679 3.11703 87.679 2.00803C87.679 0.899024 88.8635 0 90.3245 0C91.7855 0 92.9699 0.899024 92.9699 2.00803C92.9699 3.11703 91.7855 4.01605 90.3245 4.01605ZM72.9399 74.2969C71.4789 74.2969 70.2944 73.3979 70.2944 72.2889C70.2944 71.1799 71.4789 70.2808 72.9399 70.2808C74.401 70.2808 75.5854 71.1799 75.5854 72.2889C75.5854 73.3979 74.401 74.2969 72.9399 74.2969ZM72.9399 60.2408C71.4789 60.2408 70.2944 59.3418 70.2944 58.2328C70.2944 57.1238 71.4789 56.2248 72.9399 56.2248C74.401 56.2248 75.5854 57.1238 75.5854 58.2328C75.5854 59.3418 74.401 60.2408 72.9399 60.2408ZM72.9399 46.1846C71.4789 46.1846 70.2944 45.2856 70.2944 44.1766C70.2944 43.0676 71.4789 42.1685 72.9399 42.1685C74.401 42.1685 75.5854 43.0676 75.5854 44.1766C75.5854 45.2856 74.401 46.1846 72.9399 46.1846ZM72.9399 32.1285C71.4789 32.1285 70.2944 31.2295 70.2944 30.1205C70.2944 29.0115 71.4789 28.1124 72.9399 28.1124C74.401 28.1124 75.5854 29.0115 75.5854 30.1205C75.5854 31.2295 74.401 32.1285 72.9399 32.1285ZM72.9399 18.0721C71.4789 18.0721 70.2944 17.1731 70.2944 16.0641C70.2944 14.9551 71.4789 14.0561 72.9399 14.0561C74.401 14.0561 75.5854 14.9551 75.5854 16.0641C75.5854 17.1731 74.401 18.0721 72.9399 18.0721ZM72.94 4.01605C71.4789 4.01605 70.2945 3.11703 70.2945 2.00803C70.2945 0.899024 71.4789 0 72.94 0C74.4011 0 75.5855 0.899024 75.5855 2.00803C75.5855 3.11703 74.4011 4.01605 72.94 4.01605ZM55.5553 74.2969C54.0942 74.2969 52.9098 73.3979 52.9098 72.2889C52.9098 71.1799 54.0942 70.2808 55.5553 70.2808C57.0164 70.2808 58.2008 71.1799 58.2008 72.2889C58.2008 73.3979 57.0164 74.2969 55.5553 74.2969ZM55.5553 60.2408C54.0942 60.2408 52.9098 59.3418 52.9098 58.2328C52.9098 57.1238 54.0942 56.2248 55.5553 56.2248C57.0164 56.2248 58.2008 57.1238 58.2008 58.2328C58.2008 59.3418 57.0164 60.2408 55.5553 60.2408ZM55.5553 46.1846C54.0942 46.1846 52.9098 45.2856 52.9098 44.1766C52.9098 43.0676 54.0942 42.1685 55.5553 42.1685C57.0164 42.1685 58.2008 43.0676 58.2008 44.1766C58.2008 45.2856 57.0164 46.1846 55.5553 46.1846ZM55.5553 32.1285C54.0942 32.1285 52.9098 31.2295 52.9098 30.1205C52.9098 29.0115 54.0942 28.1124 55.5553 28.1124C57.0164 28.1124 58.2008 29.0115 58.2008 30.1205C58.2008 31.2295 57.0164 32.1285 55.5553 32.1285ZM55.5553 18.0721C54.0942 18.0721 52.9098 17.1731 52.9098 16.0641C52.9098 14.9551 54.0942 14.0561 55.5553 14.0561C57.0164 14.0561 58.2008 14.9551 58.2008 16.0641C58.2008 17.1731 57.0164 18.0721 55.5553 18.0721ZM55.5553 4.01605C54.0942 4.01605 52.9098 3.11703 52.9098 2.00803C52.9098 0.899024 54.0942 0 55.5553 0C57.0164 0 58.2008 0.899024 58.2008 2.00803C58.2008 3.11703 57.0164 4.01605 55.5553 4.01605ZM37.4148 74.2969C35.9537 74.2969 34.7693 73.3979 34.7693 72.2889C34.7693 71.1799 35.9537 70.2808 37.4148 70.2808C38.8759 70.2808 40.0603 71.1799 40.0603 72.2889C40.0603 73.3979 38.8759 74.2969 37.4148 74.2969ZM37.4148 60.2408C35.9537 60.2408 34.7693 59.3418 34.7693 58.2328C34.7693 57.1238 35.9537 56.2248 37.4148 56.2248C38.8759 56.2248 40.0603 57.1238 40.0603 58.2328C40.0603 59.3418 38.8759 60.2408 37.4148 60.2408ZM37.4148 46.1846C35.9537 46.1846 34.7693 45.2856 34.7693 44.1766C34.7693 43.0676 35.9537 42.1685 37.4148 42.1685C38.8759 42.1685 40.0603 43.0676 40.0603 44.1766C40.0603 45.2856 38.8759 46.1846 37.4148 46.1846ZM37.4148 32.1285C35.9537 32.1285 34.7693 31.2295 34.7693 30.1205C34.7693 29.0115 35.9537 28.1124 37.4148 28.1124C38.8759 28.1124 40.0603 29.0115 40.0603 30.1205C40.0603 31.2295 38.8759 32.1285 37.4148 32.1285ZM37.4148 18.0721C35.9537 18.0721 34.7693 17.1731 34.7693 16.0641C34.7693 14.9551 35.9537 14.0561 37.4148 14.0561C38.8759 14.0561 40.0603 14.9551 40.0603 16.0641C40.0603 17.1731 38.8759 18.0721 37.4148 18.0721ZM37.4148 4.01605C35.9537 4.01605 34.7693 3.11703 34.7693 2.00803C34.7693 0.899024 35.9537 0 37.4148 0C38.8759 0 40.0603 0.899024 40.0603 2.00803C40.0603 3.11703 38.8759 4.01605 37.4148 4.01605ZM20.0301 74.2969C18.569 74.2969 17.3846 73.3979 17.3846 72.2889C17.3846 71.1799 18.569 70.2808 20.0301 70.2808C21.4911 70.2808 22.6755 71.1799 22.6755 72.2889C22.6755 73.3979 21.4911 74.2969 20.0301 74.2969ZM20.0301 60.2408C18.569 60.2408 17.3846 59.3418 17.3846 58.2328C17.3846 57.1238 18.569 56.2248 20.0301 56.2248C21.4911 56.2248 22.6755 57.1238 22.6755 58.2328C22.6755 59.3418 21.4911 60.2408 20.0301 60.2408ZM20.0301 46.1846C18.569 46.1846 17.3846 45.2856 17.3846 44.1766C17.3846 43.0676 18.569 42.1685 20.0301 42.1685C21.4911 42.1685 22.6755 43.0676 22.6755 44.1766C22.6755 45.2856 21.4911 46.1846 20.0301 46.1846ZM20.0301 32.1285C18.569 32.1285 17.3846 31.2295 17.3846 30.1205C17.3846 29.0115 18.569 28.1124 20.0301 28.1124C21.4911 28.1124 22.6755 29.0115 22.6755 30.1205C22.6755 31.2295 21.4911 32.1285 20.0301 32.1285ZM20.0301 18.0721C18.569 18.0721 17.3846 17.1731 17.3846 16.0641C17.3846 14.9551 18.569 14.0561 20.0301 14.0561C21.4911 14.0561 22.6755 14.9551 22.6755 16.0641C22.6755 17.1731 21.4911 18.0721 20.0301 18.0721ZM20.0301 4.01605C18.569 4.01605 17.3846 3.11703 17.3846 2.00803C17.3846 0.899024 18.569 0 20.0301 0C21.4911 0 22.6755 0.899024 22.6755 2.00803C22.6755 3.11703 21.4911 4.01605 20.0301 4.01605ZM2.64551 74.2969C1.18443 74.2969 0 73.3979 0 72.2889C0 71.1799 1.18443 70.2808 2.64551 70.2808C4.10658 70.2808 5.29102 71.1799 5.29102 72.2889C5.29102 73.3979 4.10658 74.2969 2.64551 74.2969ZM2.64551 60.2408C1.18443 60.2408 0 59.3418 0 58.2328C0 57.1238 1.18443 56.2248 2.64551 56.2248C4.10658 56.2248 5.29102 57.1238 5.29102 58.2328C5.29102 59.3418 4.10658 60.2408 2.64551 60.2408ZM2.64551 46.1846C1.18443 46.1846 0 45.2856 0 44.1766C0 43.0676 1.18443 42.1685 2.64551 42.1685C4.10658 42.1685 5.29102 43.0676 5.29102 44.1766C5.29102 45.2856 4.10658 46.1846 2.64551 46.1846ZM2.64551 32.1285C1.18443 32.1285 0 31.2295 0 30.1205C0 29.0115 1.18443 28.1124 2.64551 28.1124C4.10658 28.1124 5.29102 29.0115 5.29102 30.1205C5.29102 31.2295 4.10658 32.1285 2.64551 32.1285ZM2.64551 18.0721C1.18443 18.0721 0 17.1731 0 16.0641C0 14.9551 1.18443 14.0561 2.64551 14.0561C4.10658 14.0561 5.29102 14.9551 5.29102 16.0641C5.29102 17.1731 4.10658 18.0721 2.64551 18.0721ZM2.64551 4.01605C1.18443 4.01605 0 3.11703 0 2.00803C0 0.899024 1.18443 0 2.64551 0C4.10658 0 5.29102 0.899024 5.29102 2.00803C5.29102 3.11703 4.10658 4.01605 2.64551 4.01605Z" fill="#0064CD"/>
</svg>
