<svg width="83" height="73" viewBox="0 0 83 73" fill="none" xmlns="http://www.w3.org/2000/svg">
<path d="M78.1779 72.117H4.8181C3.40394 72.117 2.09722 71.3625 1.39015 70.1378C0.683091 68.9131 0.6831 67.4042 1.39018 66.1795L38.0681 2.84617C38.7757 1.62349 40.0813 0.870605 41.494 0.870605C42.9067 0.870605 44.2123 1.62349 44.92 2.84617L81.5979 66.1795C82.3046 67.4036 82.305 68.9116 81.5989 70.1361C80.8928 71.3605 79.5874 72.1156 78.1739 72.117H78.1779ZM41.5 12.742L11.6898 64.2003H71.3181L41.5 12.742ZM45.4385 48.371H37.5218V28.5753H45.4385V48.371Z" fill="#F1D02D"/>
<path d="M37.5416 52.3333H45.4583V60.2499H37.5416V52.3333Z" fill="#F1D02D"/>
</svg>
