<svg width="93" height="98" viewBox="0 0 93 98" fill="none" xmlns="http://www.w3.org/2000/svg">
<path fill-rule="evenodd" clip-rule="evenodd" d="M90.3252 97.3867C88.8641 97.3867 87.6797 96.2083 87.6797 94.7546C87.6797 93.301 88.8641 92.1226 90.3252 92.1226C91.7862 92.1226 92.9707 93.301 92.9707 94.7546C92.9707 96.2083 91.7862 97.3867 90.3252 97.3867ZM90.3252 78.9624C88.8641 78.9624 87.6797 77.784 87.6797 76.3303C87.6797 74.8767 88.8641 73.6982 90.3252 73.6982C91.7862 73.6982 92.9707 74.8767 92.9707 76.3303C92.9707 77.784 91.7862 78.9624 90.3252 78.9624ZM90.3252 60.5381C88.8641 60.5381 87.6797 59.3597 87.6797 57.906C87.6797 56.4523 88.8641 55.2739 90.3252 55.2739C91.7862 55.2739 92.9707 56.4523 92.9707 57.906C92.9707 59.3597 91.7862 60.5381 90.3252 60.5381ZM90.3252 42.1133C88.8641 42.1133 87.6797 40.9349 87.6797 39.4812C87.6797 38.0275 88.8641 36.8491 90.3252 36.8491C91.7862 36.8491 92.9707 38.0275 92.9707 39.4812C92.9707 40.9349 91.7862 42.1133 90.3252 42.1133ZM90.3252 23.689C88.8641 23.689 87.6797 22.5105 87.6797 21.0569C87.6797 19.6032 88.8641 18.4248 90.3252 18.4248C91.7862 18.4248 92.9707 19.6032 92.9707 21.0569C92.9707 22.5105 91.7862 23.689 90.3252 23.689ZM90.3252 5.26416C88.8641 5.26416 87.6797 4.08574 87.6797 2.63208C87.6797 1.17842 88.8641 0 90.3252 0C91.7862 0 92.9707 1.17842 92.9707 2.63208C92.9707 4.08574 91.7862 5.26416 90.3252 5.26416ZM72.9404 97.3867C71.4793 97.3867 70.2949 96.2083 70.2949 94.7546C70.2949 93.301 71.4793 92.1226 72.9404 92.1226C74.4015 92.1226 75.5859 93.301 75.5859 94.7546C75.5859 96.2083 74.4015 97.3867 72.9404 97.3867ZM72.9404 78.9624C71.4793 78.9624 70.2949 77.784 70.2949 76.3303C70.2949 74.8767 71.4793 73.6982 72.9404 73.6982C74.4015 73.6982 75.5859 74.8767 75.5859 76.3303C75.5859 77.784 74.4015 78.9624 72.9404 78.9624ZM72.9404 60.5381C71.4793 60.5381 70.2949 59.3597 70.2949 57.906C70.2949 56.4523 71.4793 55.2739 72.9404 55.2739C74.4015 55.2739 75.5859 56.4523 75.5859 57.906C75.5859 59.3597 74.4015 60.5381 72.9404 60.5381ZM72.9404 42.1133C71.4793 42.1133 70.2949 40.9349 70.2949 39.4812C70.2949 38.0275 71.4793 36.8491 72.9404 36.8491C74.4015 36.8491 75.5859 38.0275 75.5859 39.4812C75.5859 40.9349 74.4015 42.1133 72.9404 42.1133ZM72.9404 23.689C71.4793 23.689 70.2949 22.5105 70.2949 21.0569C70.2949 19.6032 71.4793 18.4248 72.9404 18.4248C74.4015 18.4248 75.5859 19.6032 75.5859 21.0569C75.5859 22.5105 74.4015 23.689 72.9404 23.689ZM72.9404 5.26416C71.4793 5.26416 70.2949 4.08574 70.2949 2.63208C70.2949 1.17842 71.4793 0 72.9404 0C74.4015 0 75.5859 1.17842 75.5859 2.63208C75.5859 4.08574 74.4015 5.26416 72.9404 5.26416ZM55.5556 97.3867C54.0946 97.3867 52.9102 96.2083 52.9102 94.7546C52.9102 93.301 54.0946 92.1226 55.5556 92.1226C57.0167 92.1226 58.2011 93.301 58.2011 94.7546C58.2011 96.2083 57.0167 97.3867 55.5556 97.3867ZM55.5556 78.9624C54.0946 78.9624 52.9102 77.784 52.9102 76.3303C52.9102 74.8767 54.0946 73.6982 55.5556 73.6982C57.0167 73.6982 58.2011 74.8767 58.2011 76.3303C58.2011 77.784 57.0167 78.9624 55.5556 78.9624ZM55.5556 60.5381C54.0946 60.5381 52.9102 59.3597 52.9102 57.906C52.9102 56.4523 54.0946 55.2739 55.5556 55.2739C57.0167 55.2739 58.2011 56.4523 58.2011 57.906C58.2011 59.3597 57.0167 60.5381 55.5556 60.5381ZM55.5556 42.1133C54.0946 42.1133 52.9102 40.9349 52.9102 39.4812C52.9102 38.0275 54.0946 36.8491 55.5556 36.8491C57.0167 36.8491 58.2011 38.0275 58.2011 39.4812C58.2011 40.9349 57.0167 42.1133 55.5556 42.1133ZM55.5556 23.689C54.0946 23.689 52.9102 22.5105 52.9102 21.0569C52.9102 19.6032 54.0946 18.4248 55.5556 18.4248C57.0167 18.4248 58.2011 19.6032 58.2011 21.0569C58.2011 22.5105 57.0167 23.689 55.5556 23.689ZM55.5556 5.26416C54.0946 5.26416 52.9102 4.08574 52.9102 2.63208C52.9102 1.17842 54.0946 0 55.5556 0C57.0167 0 58.2011 1.17842 58.2011 2.63208C58.2011 4.08574 57.0167 5.26416 55.5556 5.26416ZM37.415 97.3867C35.954 97.3867 34.7695 96.2083 34.7695 94.7546C34.7695 93.301 35.954 92.1226 37.415 92.1226C38.8761 92.1226 40.0605 93.301 40.0605 94.7546C40.0605 96.2083 38.8761 97.3867 37.415 97.3867ZM37.415 78.9624C35.954 78.9624 34.7695 77.784 34.7695 76.3303C34.7695 74.8767 35.954 73.6982 37.415 73.6982C38.8761 73.6982 40.0605 74.8767 40.0605 76.3303C40.0605 77.784 38.8761 78.9624 37.415 78.9624ZM37.415 60.5381C35.954 60.5381 34.7695 59.3597 34.7695 57.906C34.7695 56.4523 35.954 55.2739 37.415 55.2739C38.8761 55.2739 40.0605 56.4523 40.0605 57.906C40.0605 59.3597 38.8761 60.5381 37.415 60.5381ZM37.415 42.1133C35.954 42.1133 34.7695 40.9349 34.7695 39.4812C34.7695 38.0275 35.954 36.8491 37.415 36.8491C38.8761 36.8491 40.0605 38.0275 40.0605 39.4812C40.0605 40.9349 38.8761 42.1133 37.415 42.1133ZM37.415 23.689C35.954 23.689 34.7695 22.5105 34.7695 21.0569C34.7695 19.6032 35.954 18.4248 37.415 18.4248C38.8761 18.4248 40.0605 19.6032 40.0605 21.0569C40.0605 22.5105 38.8761 23.689 37.415 23.689ZM37.415 5.26416C35.954 5.26416 34.7695 4.08574 34.7695 2.63208C34.7695 1.17842 35.954 0 37.415 0C38.8761 0 40.0605 1.17842 40.0605 2.63208C40.0605 4.08574 38.8761 5.26416 37.415 5.26416ZM20.0303 97.3867C18.5692 97.3867 17.3848 96.2083 17.3848 94.7546C17.3848 93.301 18.5692 92.1226 20.0303 92.1226C21.4913 92.1226 22.6757 93.301 22.6757 94.7546C22.6757 96.2083 21.4913 97.3867 20.0303 97.3867ZM20.0303 78.9624C18.5692 78.9624 17.3848 77.784 17.3848 76.3303C17.3848 74.8767 18.5692 73.6982 20.0303 73.6982C21.4913 73.6982 22.6757 74.8767 22.6757 76.3303C22.6757 77.784 21.4913 78.9624 20.0303 78.9624ZM20.0303 60.5381C18.5692 60.5381 17.3848 59.3597 17.3848 57.906C17.3848 56.4523 18.5692 55.2739 20.0303 55.2739C21.4913 55.2739 22.6757 56.4523 22.6757 57.906C22.6757 59.3597 21.4913 60.5381 20.0303 60.5381ZM20.0303 42.1133C18.5692 42.1133 17.3848 40.9349 17.3848 39.4812C17.3848 38.0275 18.5692 36.8491 20.0303 36.8491C21.4913 36.8491 22.6757 38.0275 22.6757 39.4812C22.6757 40.9349 21.4913 42.1133 20.0303 42.1133ZM20.0303 23.689C18.5692 23.689 17.3848 22.5105 17.3848 21.0569C17.3848 19.6032 18.5692 18.4248 20.0303 18.4248C21.4913 18.4248 22.6757 19.6032 22.6757 21.0569C22.6757 22.5105 21.4913 23.689 20.0303 23.689ZM20.0303 5.26416C18.5692 5.26416 17.3848 4.08574 17.3848 2.63208C17.3848 1.17842 18.5692 0 20.0303 0C21.4913 0 22.6757 1.17842 22.6757 2.63208C22.6757 4.08574 21.4913 5.26416 20.0303 5.26416ZM2.64549 97.3867C1.18443 97.3867 0 96.2083 0 94.7546C0 93.301 1.18443 92.1226 2.64549 92.1226C4.10655 92.1226 5.29098 93.301 5.29098 94.7546C5.29098 96.2083 4.10655 97.3867 2.64549 97.3867ZM2.64549 78.9624C1.18443 78.9624 0 77.784 0 76.3303C0 74.8767 1.18443 73.6982 2.64549 73.6982C4.10655 73.6982 5.29098 74.8767 5.29098 76.3303C5.29098 77.784 4.10655 78.9624 2.64549 78.9624ZM2.64549 60.5381C1.18443 60.5381 0 59.3597 0 57.906C0 56.4523 1.18443 55.2739 2.64549 55.2739C4.10655 55.2739 5.29098 56.4523 5.29098 57.906C5.29098 59.3597 4.10655 60.5381 2.64549 60.5381ZM2.64549 42.1133C1.18443 42.1133 0 40.9349 0 39.4812C0 38.0275 1.18443 36.8491 2.64549 36.8491C4.10655 36.8491 5.29098 38.0275 5.29098 39.4812C5.29098 40.9349 4.10655 42.1133 2.64549 42.1133ZM2.64549 23.689C1.18443 23.689 0 22.5105 0 21.0569C0 19.6032 1.18443 18.4248 2.64549 18.4248C4.10655 18.4248 5.29098 19.6032 5.29098 21.0569C5.29098 22.5105 4.10655 23.689 2.64549 23.689ZM2.64549 5.26416C1.18443 5.26416 0 4.08574 0 2.63208C0 1.17842 1.18443 0 2.64549 0C4.10655 0 5.29098 1.17842 5.29098 2.63208C5.29098 4.08574 4.10655 5.26416 2.64549 5.26416Z" fill="#FBFBFB"/>
</svg>
