<svg width="32" height="30" viewBox="0 0 32 30" fill="none" xmlns="http://www.w3.org/2000/svg">
<path d="M16 28C8.20191 28 2 22.1158 2 15H0C0 23.3481 7.22955 30 16 30V28ZM30 15C30 22.1158 23.7981 28 16 28V30C24.7705 30 32 23.3481 32 15H30ZM16 2C23.7981 2 30 7.88416 30 15H32C32 6.65187 24.7705 0 16 0V2ZM16 0C7.22955 0 0 6.65187 0 15H2C2 7.88416 8.20191 2 16 2V0ZM17 29V13H15V29H17ZM20.2857 10H21.3571V8H20.2857V10ZM17 13C17 11.407 18.405 10 20.2857 10V8C17.4326 8 15 10.1747 15 13H17ZM10.6429 18H21.3571V16H10.6429V18Z" fill="#003264"/>
</svg>
