<svg width="35" height="35" viewBox="0 0 35 35" fill="none" xmlns="http://www.w3.org/2000/svg">
<path d="M25.75 8.07143H28.1071M10.4286 1H24.5714C29.7787 1 34 5.22132 34 10.4286V24.5714C34 29.7787 29.7787 34 24.5714 34H10.4286C5.22132 34 1 29.7787 1 24.5714V10.4286C1 5.22132 5.22132 1 10.4286 1ZM17.5 24.5714C13.5946 24.5714 10.4286 21.4054 10.4286 17.5C10.4286 13.5946 13.5946 10.4286 17.5 10.4286C21.4054 10.4286 24.5714 13.5946 24.5714 17.5C24.5714 21.4054 21.4054 24.5714 17.5 24.5714Z" stroke="white" stroke-width="2"/>
</svg>
