<svg width="25" height="37" viewBox="0 0 25 37" fill="none" xmlns="http://www.w3.org/2000/svg">
<path d="M23.4408 15.112H20.7621V7.78116C20.7621 4.25372 18.0539 1.34969 14.608 1.03165C14.5518 1.01266 14.4922 1 14.4296 1C14.3853 1 14.3429 1.00633 14.3015 1.01639C14.1943 1.01117 14.0889 1 13.9809 1H10.5615C10.4535 1 10.3481 1.01117 10.2408 1.01639C10.1999 1.00633 10.157 1 10.1127 1C10.0501 1 9.99056 1.01266 9.93432 1.03165C6.48844 1.34969 3.7803 4.25372 3.7803 7.78116V15.112H1.10158C0.793226 15.112 0.542969 15.3619 0.542969 15.6706V18.9359C0.542969 24.1049 4.74819 28.3101 9.91719 28.3101H10.1395V34.5166H7.02694C6.71859 34.5166 6.46833 34.7665 6.46833 35.0752C6.46833 35.384 6.71859 35.6338 7.02694 35.6338H10.6981H13.8446H17.5158C17.8241 35.6338 18.0744 35.384 18.0744 35.0752C18.0744 34.7665 17.8241 34.5166 17.5158 34.5166H14.4032V28.3101H14.6255C19.7945 28.3101 23.9998 24.1049 23.9998 18.9359V15.6706C23.9994 15.3619 23.7491 15.112 23.4408 15.112ZM4.89752 13.7698H7.90136C8.20971 13.7698 8.45997 13.5199 8.45997 13.2112C8.45997 12.9025 8.20971 12.6526 7.90136 12.6526H4.89752V11.6829H7.90136C8.20971 11.6829 8.45997 11.433 8.45997 11.1243C8.45997 10.8155 8.20971 10.5656 7.90136 10.5656H4.89752V9.45326H7.90136C8.20971 9.45326 8.45997 9.20338 8.45997 8.89465C8.45997 8.58593 8.20971 8.33604 7.90136 8.33604H4.89752V7.78153C4.89752 5.00263 6.91038 2.68998 9.5541 2.21256V4.00383C9.5541 4.31256 9.80435 4.56244 10.1127 4.56244C10.4211 4.56244 10.6713 4.31256 10.6713 4.00383V2.11722H11.6411V4.00346C11.6411 4.31219 11.8913 4.56207 12.1997 4.56207C12.508 4.56207 12.7583 4.31219 12.7583 4.00346V2.11722H13.8707V4.00346C13.8707 4.31219 14.1209 4.56207 14.4293 4.56207C14.7376 4.56207 14.9879 4.31219 14.9879 4.00346V2.21218C17.6316 2.68961 19.6448 5.00226 19.6448 7.78116V8.33567H16.641C16.3326 8.33567 16.0824 8.58555 16.0824 8.89428C16.0824 9.20301 16.3326 9.45289 16.641 9.45289H19.6448V10.5653H16.641C16.3326 10.5653 16.0824 10.8152 16.0824 11.1239C16.0824 11.4326 16.3326 11.6825 16.641 11.6825H19.6448V12.6522H16.641C16.3326 12.6522 16.0824 12.9021 16.0824 13.2108C16.0824 13.5196 16.3326 13.7695 16.641 13.7695H19.6448V15.1116H4.89752V13.7698ZM4.89752 16.2292H19.6448V18.7124C19.6448 21.8965 17.0544 24.487 13.8703 24.487H10.6721C7.48798 24.487 4.89752 21.8965 4.89752 18.7124V16.2292V16.2292ZM13.286 34.5166H11.2567V28.3101H13.286V34.5166ZM22.8822 18.9359C22.8822 23.4889 19.1782 27.1929 14.6252 27.1929H13.8442H10.6978H9.91682C5.36378 27.1929 1.65982 23.4889 1.65982 18.9359V16.2292H3.7803V18.7124C3.7803 22.5125 6.87202 25.6042 10.6721 25.6042H13.8703C17.6703 25.6042 20.7621 22.5125 20.7621 18.7124V16.2292H22.8822V18.9359V18.9359Z" fill="white" stroke="white"/>
</svg>
