<svg width="15" height="18" viewBox="0 0 15 18" fill="none" xmlns="http://www.w3.org/2000/svg">
<path d="M13.3645 0H1.1667C0.67879 0 0.353516 0.327273 0.353516 0.818182V17.1818C0.353516 17.6727 0.67879 18 1.1667 18H13.3645C13.8524 18 14.1777 17.6727 14.1777 17.1818V0.818182C14.1777 0.327273 13.8524 0 13.3645 0ZM12.5513 16.3636H1.97989V1.63636H12.5513V16.3636ZM2.79308 4.09091C2.79308 3.6 3.11835 3.27273 3.60626 3.27273H10.9249C11.4129 3.27273 11.7381 3.6 11.7381 4.09091C11.7381 4.58182 11.4129 4.90909 10.9249 4.90909H3.60626C3.11835 4.90909 2.79308 4.58182 2.79308 4.09091ZM2.79308 7.36364C2.79308 6.87273 3.11835 6.54545 3.60626 6.54545H10.9249C11.4129 6.54545 11.7381 6.87273 11.7381 7.36364C11.7381 7.85455 11.4129 8.18182 10.9249 8.18182H3.60626C3.11835 8.18182 2.79308 7.85455 2.79308 7.36364ZM2.79308 10.6364C2.79308 10.1455 3.11835 9.81818 3.60626 9.81818H10.9249C11.4129 9.81818 11.7381 10.1455 11.7381 10.6364C11.7381 11.1273 11.4129 11.4545 10.9249 11.4545H3.60626C3.11835 11.4545 2.79308 11.1273 2.79308 10.6364ZM2.79308 13.9091C2.79308 13.4182 3.11835 13.0909 3.60626 13.0909H10.9249C11.4129 13.0909 11.7381 13.4182 11.7381 13.9091C11.7381 14.4 11.4129 14.7273 10.9249 14.7273H3.60626C3.11835 14.7273 2.79308 14.4 2.79308 13.9091Z" fill="#0064CD"/>
</svg>
