<svg width="22" height="21" viewBox="0 0 22 21" fill="none" xmlns="http://www.w3.org/2000/svg">
<path d="M7.02746 1H3.85714C2.27919 1 1 2.21523 1 3.71429V6.42857C1 13.9239 7.39593 20 15.2857 20H18.1429C19.7208 20 21 18.7848 21 17.2857V15.4102C21 14.8961 20.6943 14.4262 20.2103 14.1963L16.759 12.5569C15.9814 12.1876 15.0398 12.5581 14.7648 13.3416L14.3395 14.554C14.0639 15.3393 13.216 15.8067 12.3616 15.6444C8.94184 14.9947 6.26877 12.4552 5.58483 9.20653C5.41395 8.39483 5.90603 7.58928 6.73266 7.32752L8.31641 6.82599C9.02459 6.60174 9.43163 5.89732 9.25058 5.20934L8.41338 2.02799C8.25439 1.42383 7.68299 1 7.02746 1Z" stroke="#FBFBFB" stroke-width="2"/>
</svg>
