<svg width="31" height="28" viewBox="0 0 31 28" fill="none" xmlns="http://www.w3.org/2000/svg">
<path d="M29.9552 1L30.9532 0.936742C30.9275 0.530948 30.6587 0.181131 30.2731 0.0518733C29.8876 -0.0773845 29.4622 0.0396559 29.1971 0.347929L29.9552 1ZM28.887 7.41096C28.887 6.85867 28.4393 6.41096 27.887 6.41096C27.3347 6.41096 26.887 6.85867 26.887 7.41096H28.887ZM15.4776 7.58904H14.4776V7.58904L15.4776 7.58904ZM15.4776 9.66667L16.4776 9.66667V9.66667H15.4776ZM1 24.8333V23.8333C0.563331 23.8333 0.177156 24.1167 0.0461003 24.5332C-0.0849552 24.9497 0.0694178 25.4032 0.427421 25.6532L1 24.8333ZM3.06823 1L4.00973 0.662979C3.87364 0.282806 3.52227 0.0217848 3.11899 0.00128901C2.71572 -0.0192068 2.33969 0.204846 2.16576 0.569262L3.06823 1ZM11.3412 20.5L12.0645 21.1905C12.2992 20.9446 12.393 20.5963 12.3134 20.2659C12.2338 19.9354 11.9918 19.668 11.6708 19.5559L11.3412 20.5ZM26.3047 3.10899L25.5482 3.76297L25.9119 4.18369L26.4612 4.09668L26.3047 3.10899ZM28.9572 1.06326C29.0645 2.75529 28.9666 3.79849 28.6977 4.59121C28.4366 5.36123 27.9827 5.98829 27.1791 6.7937L28.5949 8.2063C29.5004 7.29873 30.1909 6.41546 30.5917 5.23357C30.9849 4.07437 31.0665 2.72406 30.9532 0.936742L28.9572 1.06326ZM28.887 8.98957V7.41096H26.887V8.98957H28.887ZM14.4776 7.58904L14.4776 9.66667H16.4776L16.4776 7.58904L14.4776 7.58904ZM14.4776 9.66667L14.4776 10.75L16.4776 10.75L16.4776 9.66667L14.4776 9.66667ZM21.7673 0C17.698 0 14.4776 3.44206 14.4776 7.58904H16.4776C16.4776 4.45797 18.8892 2 21.7673 2V0ZM26.887 8.98957C26.887 18.4285 19.5942 26 10.6948 26V28C20.7854 28 28.887 19.4444 28.887 8.98957H26.887ZM2.12674 1.33702C3.23788 4.4411 7.44406 10.6667 15.4776 10.6667V8.66667C8.61992 8.66667 4.96681 3.33667 4.00973 0.662979L2.12674 1.33702ZM2.16576 0.569262C0.00750339 5.0912 -0.317387 9.45718 1.2414 13.1685C2.79993 16.8792 6.16421 19.7514 11.0115 21.4441L11.6708 19.5559C7.21107 17.9986 4.37065 15.4541 3.08536 12.394C1.80033 9.33449 1.9925 5.57546 3.97071 1.43074L2.16576 0.569262ZM10.6178 19.8095C9.36088 21.1263 5.60683 23.8333 1 23.8333V25.8333C6.32068 25.8333 10.5638 22.7626 12.0645 21.1905L10.6178 19.8095ZM27.0612 2.45502C25.7654 0.956083 23.8779 0 21.7673 0V2C23.2557 2 24.6044 2.67127 25.5482 3.76297L27.0612 2.45502ZM26.4612 4.09668C28.0394 3.84666 29.5703 2.98117 30.7134 1.65207L29.1971 0.347929C28.3423 1.34181 27.2281 1.95024 26.1482 2.12131L26.4612 4.09668ZM0.427421 25.6532C3.82132 28.0235 7.38445 28 10.6948 28V26C7.32107 26 4.38338 25.9765 1.57258 24.0135L0.427421 25.6532Z" fill="#003264"/>
</svg>
