<svg width="35" height="30" viewBox="0 0 35 30" fill="none" xmlns="http://www.w3.org/2000/svg">
<path d="M33.9491 1L34.9468 0.933174C34.92 0.533087 34.6568 0.187696 34.2782 0.0557175C33.8996 -0.0762604 33.4787 0.0307 33.209 0.327447L33.9491 1ZM32.5956 7.90411C32.5956 7.35182 32.1478 6.90411 31.5956 6.90411C31.0433 6.90411 30.5956 7.35182 30.5956 7.90411H32.5956ZM17.4745 8.09589H16.4745V8.09589L17.4745 8.09589ZM17.4745 10.3333L18.4745 10.3333V10.3333L17.4745 10.3333ZM1 26.6667V25.6667C0.558599 25.6667 0.169408 25.9561 0.0423352 26.3788C-0.0847377 26.8015 0.0803686 27.2575 0.448604 27.5009L1 26.6667ZM3.35351 1L4.28883 0.64622C4.14853 0.275276 3.80227 0.0222992 3.40623 0.0013907C3.01019 -0.0195179 2.63921 0.195593 2.46063 0.549701L3.35351 1ZM12.7675 22L13.4716 22.7101C13.7186 22.4653 13.8206 22.1096 13.741 21.7711C13.6614 21.4325 13.4115 21.1596 13.0813 21.0505L12.7675 22ZM29.795 3.27122L29.0566 3.94565L29.4161 4.3392L29.9433 4.26017L29.795 3.27122ZM32.9513 1.06683C33.0734 2.88946 32.9623 4.01651 32.6543 4.87599C32.3537 5.71503 31.8294 6.39989 30.9074 7.27448L32.2838 8.72552C33.3065 7.75536 34.0845 6.81372 34.5371 5.55069C34.9824 4.30811 35.0757 2.85754 34.9468 0.933174L32.9513 1.06683ZM32.5956 9.60415V7.90411H30.5956V9.60415H32.5956ZM16.4745 8.09589L16.4745 10.3333L18.4745 10.3333V8.09589L16.4745 8.09589ZM16.4745 10.3333L16.4745 11.5L18.4745 11.5V10.3333L16.4745 10.3333ZM24.6318 0C20.1348 0 16.4745 3.61656 16.4745 8.09589H18.4745C18.4745 4.73732 21.2231 2 24.6318 2V0ZM30.5956 9.60415C30.5956 19.7558 22.2925 28 12.032 28V30C23.3808 30 32.5956 20.8766 32.5956 9.60415H30.5956ZM2.41818 1.35378C3.68579 4.7051 8.44701 11.3333 17.4745 11.3333V9.33333C9.55683 9.33333 5.37473 3.51712 4.28883 0.64622L2.41818 1.35378ZM2.46063 0.549701C0.0090695 5.41079 -0.359631 10.1061 1.40982 14.0931C3.17495 18.0704 6.97796 21.1399 12.4537 22.9495L13.0813 21.0505C7.96632 19.3601 4.70881 16.5962 3.23788 13.2818C1.77125 9.97719 1.99093 5.92254 4.24638 1.4503L2.46063 0.549701ZM12.0635 21.2899C10.6226 22.7184 6.31166 25.6667 1 25.6667V27.6667C6.98516 27.6667 11.7745 24.3927 13.4716 22.7101L12.0635 21.2899ZM30.5333 2.5968C29.0766 1.00203 26.9706 0 24.6318 0V2C26.3884 2 27.965 2.75051 29.0566 3.94565L30.5333 2.5968ZM29.9433 4.26017C31.6909 3.99816 33.4026 3.08818 34.6891 1.67255L33.209 0.327447C32.222 1.41348 30.9238 2.09081 29.6467 2.28227L29.9433 4.26017ZM0.448604 27.5009C4.26356 30.0224 8.26231 30 12.032 30V28C8.1957 28 4.79696 27.9776 1.5514 25.8324L0.448604 27.5009Z" fill="white"/>
</svg>
