<svg width="31" height="32" viewBox="0 0 31 32" fill="none" xmlns="http://www.w3.org/2000/svg">
<path d="M3.89958 25.0009L4.79992 25.436L5.06028 24.8974L4.70872 24.4133L3.89958 25.0009ZM6.79915 28.0004L7.41278 27.2108L6.90779 26.8184L6.33973 27.1122L6.79915 28.0004ZM1 31L0.099651 30.5648C-0.0876808 30.9524 -0.00594938 31.4164 0.302546 31.7166C0.611042 32.0169 1.07706 32.086 1.45942 31.8882L1 31ZM9.28571 9.57143L8.71798 8.74822C8.44733 8.93487 8.28571 9.24265 8.28571 9.57143H9.28571ZM21.7143 22.4286V23.4286C22.0542 23.4286 22.3708 23.256 22.5549 22.9703L21.7143 22.4286ZM12.9195 10.6976L13.9068 10.5385L12.9195 10.6976ZM13.2084 12.4905L12.2211 12.6495L13.2084 12.4905ZM12.3142 14.6257L12.8819 15.4489L12.3142 14.6257ZM22.0087 21.9718L22.8492 22.5135L22.0087 21.9718ZM20.6257 18.6694L20.7956 17.684L20.6257 18.6694ZM18.8926 18.3706L18.7227 19.3561L18.7227 19.3561L18.8926 18.3706ZM16.8285 19.2957L15.9879 18.754L16.8285 19.2957ZM0 16C0 19.5928 1.14834 22.9142 3.09043 25.5885L4.70872 24.4133C3.00944 22.0733 2 19.1617 2 16H0ZM15.5 0C6.9079 0 0 7.19567 0 16H2C2 8.23579 8.07584 2 15.5 2V0ZM31 16C31 7.19567 24.0921 0 15.5 0V2C22.9242 2 29 8.23579 29 16H31ZM15.5 32C24.0921 32 31 24.8043 31 16H29C29 23.7642 22.9242 30 15.5 30V32ZM6.18552 28.79C8.77605 30.8033 12.0026 32 15.5 32V30C12.4681 30 9.66937 28.9645 7.41278 27.2108L6.18552 28.79ZM1.45942 31.8882L7.25857 28.8887L6.33973 27.1122L0.540577 30.1118L1.45942 31.8882ZM2.99923 24.5657L0.099651 30.5648L1.90035 31.4352L4.79992 25.436L2.99923 24.5657ZM8.28571 9.57143V11.7143H10.2857V9.57143H8.28571ZM19.6429 23.4286H21.7143V21.4286H19.6429V23.4286ZM8.28571 11.7143C8.28571 18.1517 13.3388 23.4286 19.6429 23.4286V21.4286C14.5067 21.4286 10.2857 17.1116 10.2857 11.7143H8.28571ZM9.85345 10.3946L10.295 10.0901L9.15953 8.4437L8.71798 8.74822L9.85345 10.3946ZM11.9323 10.8567L12.2211 12.6495L14.1957 12.3314L13.9068 10.5385L11.9323 10.8567ZM11.7464 13.8025L9.7537 15.1768L10.8892 16.8232L12.8819 15.4489L11.7464 13.8025ZM12.2211 12.6495C12.2955 13.1114 12.0979 13.5601 11.7464 13.8025L12.8819 15.4489C13.8869 14.7558 14.3893 13.5331 14.1957 12.3314L12.2211 12.6495ZM10.295 10.0901C10.9046 9.66967 11.795 10.0045 11.9323 10.8567L13.9068 10.5385C13.5499 8.32305 11.0513 7.13905 9.15953 8.4437L10.295 10.0901ZM22.5549 22.9703L22.8492 22.5135L21.1681 21.4301L20.8737 21.8869L22.5549 22.9703ZM20.7956 17.684L19.0625 17.3852L18.7227 19.3561L20.4558 19.6549L20.7956 17.684ZM15.9879 18.754L14.6594 20.8154L16.3406 21.8988L17.6691 19.8374L15.9879 18.754ZM19.0625 17.3852C17.8513 17.1764 16.6508 17.7253 15.9879 18.754L17.6691 19.8374C17.9104 19.4628 18.3258 19.2877 18.7227 19.3561L19.0625 17.3852ZM22.8492 22.5135C24.0485 20.6525 23.0251 18.0684 20.7956 17.684L20.4558 19.6549C21.1916 19.7818 21.6364 20.7035 21.1681 21.4301L22.8492 22.5135Z" fill="#003264"/>
</svg>
