<svg width="35" height="29" viewBox="0 0 35 29" fill="none" xmlns="http://www.w3.org/2000/svg">
<path d="M3.61848 26.5632L3.41356 27.542H3.41356L3.61848 26.5632ZM31.3815 26.5632L31.5864 27.542L31.3815 26.5632ZM31.3815 2.43683L31.5864 1.45805V1.45805L31.3815 2.43683ZM3.61848 2.43683L3.8234 3.41561L3.61848 2.43683ZM15.1429 9.89402L15.6886 9.05609C15.3812 8.85585 14.9888 8.84003 14.6663 9.01487C14.3438 9.18971 14.1429 9.52714 14.1429 9.89402H15.1429ZM15.1429 19.106H14.1429C14.1429 19.4729 14.3438 19.8103 14.6663 19.9851C14.9888 20.16 15.3812 20.1441 15.6886 19.9439L15.1429 19.106ZM22.2143 14.5L22.7601 15.3379C23.0434 15.1534 23.2143 14.8381 23.2143 14.5C23.2143 14.1619 23.0434 13.8466 22.7601 13.6621L22.2143 14.5ZM0 5.60144V23.3986H2V5.60144H0ZM35 23.3986V5.60144H33V23.3986H35ZM3.41356 27.542C12.6992 29.486 22.3008 29.486 31.5864 27.542L31.1766 25.5844C22.1613 27.4719 12.8387 27.4719 3.8234 25.5844L3.41356 27.542ZM31.5864 1.45805C22.3008 -0.486017 12.6992 -0.486017 3.41356 1.45805L3.8234 3.41561C12.8387 1.52813 22.1613 1.52813 31.1766 3.41561L31.5864 1.45805ZM35 5.60144C35 3.58659 33.5618 1.87161 31.5864 1.45805L31.1766 3.41561C32.2559 3.64158 33 4.56407 33 5.60144H35ZM33 23.3986C33 24.4359 32.2559 25.3584 31.1766 25.5844L31.5864 27.542C33.5618 27.1284 35 25.4134 35 23.3986H33ZM0 23.3986C0 25.4134 1.43825 27.1284 3.41356 27.542L3.8234 25.5844C2.74406 25.3584 2 24.4359 2 23.3986H0ZM2 5.60144C2 4.56407 2.74406 3.64158 3.8234 3.41561L3.41356 1.45805C1.43825 1.87161 0 3.58659 0 5.60144H2ZM14.1429 9.89402V19.106H16.1429V9.89402H14.1429ZM15.6886 19.9439L22.7601 15.3379L21.6685 13.6621L14.5971 18.2681L15.6886 19.9439ZM22.7601 13.6621L15.6886 9.05609L14.5971 10.7319L21.6685 15.3379L22.7601 13.6621Z" fill="white"/>
</svg>
